<mxfile host="app.diagrams.net" modified="2023-05-04T11:20:23.372Z" agent="Mozilla/5.0 (Windows NT 10.0; Win64; x64) AppleWebKit/537.36 (KHTML, like Gecko) Chrome/112.0.0.0 Safari/537.36" version="21.2.7" etag="MtufXppNLj5zMnwTZj_P" type="github">
  <diagram name="Page-1" id="Zk85KET950H2bMRsb4UU">
    <mxGraphModel>
      <root>
        <mxCell id="0" />
        <mxCell id="1" parent="0" />
      </root>
    </mxGraphModel>
  </diagram>
</mxfile>
